<?xml version="1.0" encoding="UTF-8"?>
<svg id="Lag_1" data-name="Lag 1" xmlns="http://www.w3.org/2000/svg" viewBox="0 0 189.76 169.17">
  <defs>
    <style>
      .cls-1 {
        fill: #fff;
      }

      .cls-2 {
        fill: #f6f6f6;
      }

      .cls-3 {
        fill: none;
      }

      .cls-3, .cls-4 {
        stroke: #1d1d1b;
        stroke-miterlimit: 10;
      }

      .cls-4 {
        font-family: Garamond, Garamond;
        font-size: 150px;
      }

      .cls-4, .cls-5 {
        fill: #1d1d1b;
      }
    </style>
  </defs>
  <text class="cls-4" transform="translate(3.28 122.67)"><tspan x="0" y="0">km</tspan></text>
  <rect class="cls-3" x=".5" y="8.14" width="188.76" height="99.67" rx="9.39" ry="9.39"/>
  <path class="cls-2" d="M21.65,109.86c3.22,0,3.22-5,0-5s-3.22,5,0,5h0Z"/>
  <path class="cls-2" d="M21.06,111.05c3.22,0,3.22-5,0-5s-3.22,5,0,5h0Z"/>
  <path class="cls-2" d="M20.46,109.86c3.22,0,3.22-5,0-5s-3.22,5,0,5h0Z"/>
  <path class="cls-2" d="M19.87,110.76c3.22,0,3.22-5,0-5s-3.22,5,0,5h0Z"/>
  <path class="cls-1" d="M21.06,111.05c3.22,0,3.22-5,0-5s-3.22,5,0,5h0Z"/>
  <path class="cls-1" d="M24.68,113.88l-1.21-9.18c-.09-.69-.22-1.25-.73-1.77-.43-.43-1.15-.76-1.77-.73s-1.32,.24-1.77,.73c-.41,.45-.82,1.13-.73,1.77l1.21,9.18c.09,.69,.22,1.25,.73,1.77,.43,.43,1.15,.76,1.77,.73s1.32-.24,1.77-.73c.41-.45,.82-1.13,.73-1.77h0Z"/>
  <path class="cls-1" d="M21.36,109.57c3.22,0,3.22-5,0-5s-3.22,5,0,5h0Z"/>
  <path class="cls-1" d="M20.76,111.05c3.22,0,3.22-5,0-5s-3.22,5,0,5h0Z"/>
  <path class="cls-1" d="M22.53,106.79l-.6-.6c-.23-.24-.49-.42-.8-.52-.3-.16-.62-.23-.96-.22-.34-.01-.67,.06-.96,.22-.31,.1-.58,.27-.8,.52l-.39,.51c-.23,.39-.34,.81-.34,1.26l.09,.66c.12,.42,.33,.79,.64,1.1l.6,.6c.23,.24,.49,.42,.8,.52,.3,.16,.62,.23,.96,.22,.34,.01,.67-.06,.96-.22,.31-.1,.58-.27,.8-.52l.39-.51c.23-.39,.34-.81,.34-1.26l-.09-.66c-.12-.42-.33-.79-.64-1.1h0Z"/>
  <path class="cls-1" d="M20.76,112.24c3.22,0,3.22-5,0-5s-3.22,5,0,5h0Z"/>
  <path class="cls-1" d="M19.87,111.95c3.22,0,3.22-5,0-5s-3.22,5,0,5h0Z"/>
  <path class="cls-1" d="M19.87,111.35c3.22,0,3.22-5,0-5s-3.22,5,0,5h0Z"/>
  <path class="cls-1" d="M19.87,110.46c3.22,0,3.22-5,0-5s-3.22,5,0,5h0Z"/>
  <path class="cls-1" d="M48.35,110.43c.44,.31,.91,.5,1.4,.7,.3,.13,.61,.22,.93,.28,.33,.1,.66,.12,1,.04,.33-.02,.64-.11,.93-.3,.29-.16,.53-.37,.7-.64,.22-.24,.37-.52,.45-.85l.09-.66c0-.45-.12-.87-.34-1.26-.36-.56-.85-.95-1.49-1.15-.12-.04-.23-.08-.35-.13l.6,.25c-.28-.12-.54-.27-.78-.46l.51,.39c-.26-.2-.5-.44-.7-.7l.39,.51c-.2-.26-.37-.55-.5-.85l.25,.6c-.09-.23-.16-.47-.21-.71-.08-.33-.23-.61-.45-.85-.18-.27-.41-.49-.7-.64-.29-.18-.6-.28-.93-.3-.33-.07-.66-.06-1,.04-.6,.2-1.19,.57-1.49,1.15l-.25,.6c-.12,.44-.12,.89,0,1.33,.1,.53,.33,1.05,.57,1.53s.6,.94,.96,1.34c.11,.13,.24,.25,.37,.36,.28,.24,.58,.47,.88,.68,.46,.3,.99,.52,1.51,.68l1.33-4.82c-.32-.06-.63-.15-.93-.28l.6,.25c-.28-.12-.55-.27-.81-.45-.29-.18-.6-.28-.93-.3-.33-.07-.66-.06-1,.04-.33,.08-.61,.23-.85,.45-.27,.18-.49,.41-.64,.7-.31,.58-.46,1.28-.25,1.93l.25,.6c.22,.38,.52,.67,.9,.9h0Z"/>
  <path class="cls-1" d="M93.17,108.35l.37-1.13-4.91-.66c.12,1.31,.25,2.63,.37,3.94l.09,.66c.08,.33,.23,.61,.45,.85,.32,.41,.78,.78,1.3,.9,.44,.1,.89,.1,1.33,0,.6-.14,1.19-.63,1.49-1.15,1.09-1.84,1.39-4.09,.86-6.15l-.25-.6c-.16-.29-.37-.53-.64-.7-.42-.33-.97-.56-1.51-.54-.44,.02-.87,.13-1.26,.34-.54,.28-.99,.92-1.15,1.49-.03,.12-.07,.23-.12,.35l.25-.6c-.09,.21-.2,.4-.34,.58l.39-.51c-.14,.18-.3,.34-.47,.48l.51-.39c-.18,.14-.37,.25-.58,.35l.6-.25c-.06,.02-.11,.05-.17,.07-.62,.23-1.15,.56-1.49,1.15-.31,.54-.45,1.33-.25,1.93s.57,1.19,1.15,1.49,1.3,.48,1.93,.25c.82-.3,1.57-.7,2.17-1.35s1.03-1.38,1.26-2.22h-4.82c.05,.21,.09,.41,.12,.62l-.09-.66c.06,.49,.07,.99,0,1.48l.09-.66c-.07,.49-.2,.97-.39,1.43l.25-.6c-.1,.24-.22,.47-.35,.69l4.66,1.26c-.12-1.31-.25-2.63-.37-3.94,.01-.34-.06-.67-.22-.96-.1-.31-.27-.58-.52-.8l-.51-.39c-.29-.18-.6-.28-.93-.3-.53-.07-1.13,0-1.59,.3-.56,.36-.94,.85-1.15,1.49l-.37,1.13c-.2,.6-.06,1.39,.25,1.93s.9,1.01,1.49,1.15c.64,.15,1.36,.11,1.93-.25s.94-.85,1.15-1.49h0Z"/>
  <path class="cls-1" d="M131.74,110.16c3.22,0,3.22-5,0-5s-3.22,5,0,5h0Z"/>
  <path class="cls-1" d="M130.84,110.46c3.22,0,3.22-5,0-5s-3.22,5,0,5h0Z"/>
  <path class="cls-1" d="M133.22,109.57c3.22,0,3.22-5,0-5s-3.22,5,0,5h0Z"/>
  <path class="cls-1" d="M172.2,110.46c3.22,0,3.22-5,0-5s-3.22,5,0,5h0Z"/>
  <path class="cls-1" d="M173.69,110.76c3.22,0,3.22-5,0-5s-3.22,5,0,5h0Z"/>
  <path class="cls-1" d="M22.1,109.57c3.22,0,3.22-5,0-5s-3.22,5,0,5h0Z"/>
  <path class="cls-1" d="M22.1,109.86c3.22,0,3.22-5,0-5s-3.22,5,0,5h0Z"/>
  <path class="cls-1" d="M23.59,109.21c1.61,0,1.61-2.5,0-2.5s-1.61,2.5,0,2.5h0Z"/>
  <path class="cls-1" d="M18.53,109.06c1.61,0,1.61-2.5,0-2.5s-1.61,2.5,0,2.5h0Z"/>
  <path class="cls-1" d="M18.53,109.06c1.61,0,1.61-2.5,0-2.5s-1.61,2.5,0,2.5h0Z"/>
  <path class="cls-1" d="M23.59,108.91c1.61,0,1.61-2.5,0-2.5s-1.61,2.5,0,2.5h0Z"/>
  <path class="cls-1" d="M54.73,109.35c.23-.58,.23-1.24,.06-1.83-.19-.71-.87-.97-1.54-.87-.15,.02-.18,.03-.06,.01-.09,.01-.18,.02-.26,.03-.15,.02-.31,.03-.46,.04-.33,.02-.66,.03-1,.02-.31,0-.62-.02-.93-.05-.02,0-.4-.04-.2-.02-.18-.02-.35-.05-.53-.09-.61-.11-1.21-.27-1.8-.48-.06-.02-.57-.23-.26-.09-.09-.04-.18-.09-.27-.14-.06-.03-.11-.07-.17-.11,.12,.1,.13,.1,.03,0,.09,.13,.11,.14,.03,.03,.06,.16,.08,.17,.04,.03-.12-.64-.93-1.07-1.54-.87-.69,.22-1,.85-.87,1.54,.3,1.64,2.5,2.16,3.87,2.44,1.67,.35,3.34,.36,5.03,.11l-1.54-.87c.03,.15,.04,.15,.02,.02,0,.08,0,.16,0,.24,.01-.24-.06,.18-.09,.25-.24,.61,.26,1.4,.87,1.54,.72,.16,1.28-.22,1.54-.87h0Z"/>
  <path class="cls-1" d="M54.08,110.1c1.61,0,1.61-2.5,0-2.5s-1.61,2.5,0,2.5h0Z"/>
  <path class="cls-1" d="M88.3,109.06c1.61,0,1.61-2.5,0-2.5s-1.61,2.5,0,2.5h0Z"/>
  <path class="cls-1" d="M93.8,108.91c1.61,0,1.61-2.5,0-2.5s-1.61,2.5,0,2.5h0Z"/>
  <path class="cls-1" d="M129.06,109.06c1.61,0,1.61-2.5,0-2.5s-1.61,2.5,0,2.5h0Z"/>
  <path class="cls-1" d="M134.86,109.21c1.61,0,1.61-2.5,0-2.5s-1.61,2.5,0,2.5h0Z"/>
  <path class="cls-1" d="M170.27,108.91c1.61,0,1.61-2.5,0-2.5s-1.61,2.5,0,2.5h0Z"/>
  <path class="cls-1" d="M175.62,108.91c1.61,0,1.61-2.5,0-2.5s-1.61,2.5,0,2.5h0Z"/>
  <path class="cls-1" d="M176.14,107.94c.8,0,.81-1.25,0-1.25s-.81,1.25,0,1.25h0Z"/>
  <path class="cls-1" d="M176.26,108.68c.8,0,.81-1.25,0-1.25s-.81,1.25,0,1.25h0Z"/>
  <path class="cls-1" d="M176.26,108.68c.8,0,.81-1.25,0-1.25s-.81,1.25,0,1.25h0Z"/>
  <path class="cls-1" d="M169.78,108.8c.8,0,.81-1.25,0-1.25s-.81,1.25,0,1.25h0Z"/>
  <path class="cls-1" d="M169.65,108.8c.8,0,.81-1.25,0-1.25s-.81,1.25,0,1.25h0Z"/>
  <path class="cls-1" d="M176.14,108.07c.8,0,.81-1.25,0-1.25s-.81,1.25,0,1.25h0Z"/>
  <path class="cls-1" d="M176.39,108.68c.8,0,.81-1.25,0-1.25s-.81,1.25,0,1.25h0Z"/>
  <path class="cls-1" d="M176.39,107.94c.8,0,.81-1.25,0-1.25s-.81,1.25,0,1.25h0Z"/>
  <path class="cls-1" d="M176.39,108.31c.8,0,.81-1.25,0-1.25s-.81,1.25,0,1.25h0Z"/>
  <path class="cls-1" d="M176.37,108.16c.8,0,.81-1.25,0-1.25s-.81,1.25,0,1.25h0Z"/>
  <path class="cls-1" d="M176.45,107.82c.8,0,.81-1.25,0-1.25s-.81,1.25,0,1.25h0Z"/>
  <path class="cls-1" d="M176.45,108.75c.8,0,.81-1.25,0-1.25s-.81,1.25,0,1.25h0Z"/>
  <path class="cls-1" d="M176.45,108.5c.8,0,.81-1.25,0-1.25s-.81,1.25,0,1.25h0Z"/>
  <path class="cls-1" d="M176.45,108.07c.8,0,.81-1.25,0-1.25s-.81,1.25,0,1.25h0Z"/>
  <path class="cls-1" d="M169.65,108.16c.8,0,.81-1.25,0-1.25s-.81,1.25,0,1.25h0Z"/>
  <path class="cls-1" d="M169.56,108.84c.8,0,.81-1.25,0-1.25s-.81,1.25,0,1.25h0Z"/>
  <path class="cls-1" d="M169.56,108.41c.8,0,.81-1.25,0-1.25s-.81,1.25,0,1.25h0Z"/>
  <path class="cls-1" d="M128.34,108.24c.8,0,.81-1.25,0-1.25s-.81,1.25,0,1.25h0Z"/>
  <path class="cls-1" d="M128.34,109.01c.8,0,.81-1.25,0-1.25s-.81,1.25,0,1.25h0Z"/>
  <path class="cls-1" d="M128.34,108.75c.8,0,.81-1.25,0-1.25s-.81,1.25,0,1.25h0Z"/>
  <path class="cls-1" d="M135.48,108.16c.8,0,.81-1.25,0-1.25s-.81,1.25,0,1.25h0Z"/>
  <path class="cls-1" d="M135.56,108.84c.8,0,.81-1.25,0-1.25s-.81,1.25,0,1.25h0Z"/>
  <path class="cls-1" d="M135.56,108.24c.8,0,.81-1.25,0-1.25s-.81,1.25,0,1.25h0Z"/>
  <path class="cls-1" d="M94.59,108.58c.8,0,.81-1.25,0-1.25s-.81,1.25,0,1.25h0Z"/>
  <path class="cls-1" d="M94.5,108.24c.8,0,.81-1.25,0-1.25s-.81,1.25,0,1.25h0Z"/>
  <path class="cls-1" d="M94.59,108.16c.8,0,.81-1.25,0-1.25s-.81,1.25,0,1.25h0Z"/>
  <path class="cls-1" d="M94.59,108.84c.8,0,.81-1.25,0-1.25s-.81,1.25,0,1.25h0Z"/>
  <path class="cls-1" d="M87.62,108.84c.8,0,.81-1.25,0-1.25s-.81,1.25,0,1.25h0Z"/>
  <path class="cls-1" d="M87.62,108.33c.8,0,.81-1.25,0-1.25s-.81,1.25,0,1.25h0Z"/>
  <path class="cls-1" d="M87.62,107.9c.8,0,.81-1.25,0-1.25s-.81,1.25,0,1.25h0Z"/>
  <path class="cls-1" d="M54.1,108.38v.09c0,.09,.01,.17,.05,.24,.03,.08,.07,.14,.13,.2,.06,.06,.12,.1,.2,.13,.07,.04,.15,.06,.24,.05l.17-.02c.11-.03,.2-.08,.28-.16l.1-.13c.06-.1,.08-.2,.09-.32v-.09c0-.09-.01-.17-.05-.24-.03-.08-.07-.14-.13-.2-.06-.06-.12-.1-.2-.13-.07-.04-.15-.06-.24-.05l-.17,.02c-.11,.03-.2,.08-.28,.16l-.1,.13c-.06,.1-.08,.2-.09,.32h0Z"/>
  <path class="cls-1" d="M54.64,109.01c.8,0,.81-1.25,0-1.25s-.81,1.25,0,1.25h0Z"/>
  <path class="cls-1" d="M54.64,108.58c.8,0,.81-1.25,0-1.25s-.81,1.25,0,1.25h0Z"/>
  <path class="cls-1" d="M54.47,108.5c.8,0,.81-1.25,0-1.25s-.81,1.25,0,1.25h0Z"/>
  <path class="cls-1" d="M54.98,109.18c.8,0,.81-1.25,0-1.25s-.81,1.25,0,1.25h0Z"/>
  <path class="cls-1" d="M55.23,109.26c.8,0,.81-1.25,0-1.25s-.81,1.25,0,1.25h0Z"/>
  <path class="cls-1" d="M54.89,109.01c.8,0,.81-1.25,0-1.25s-.81,1.25,0,1.25h0Z"/>
  <path class="cls-1" d="M54.38,108.33c.8,0,.81-1.25,0-1.25s-.81,1.25,0,1.25h0Z"/>
  <path class="cls-1" d="M54.98,109.09c.8,0,.81-1.25,0-1.25s-.81,1.25,0,1.25h0Z"/>
  <path class="cls-1" d="M54.89,109.01c.8,0,.81-1.25,0-1.25s-.81,1.25,0,1.25h0Z"/>
  <path class="cls-1" d="M54.89,108.92c.8,0,.81-1.25,0-1.25s-.81,1.25,0,1.25h0Z"/>
  <path class="cls-1" d="M54.47,108.33c.8,0,.81-1.25,0-1.25s-.81,1.25,0,1.25h0Z"/>
  <path class="cls-1" d="M46.65,108.58c.8,0,.81-1.25,0-1.25s-.81,1.25,0,1.25h0Z"/>
  <path class="cls-1" d="M46.56,108.24c.8,0,.81-1.25,0-1.25s-.81,1.25,0,1.25h0Z"/>
  <path class="cls-1" d="M46.22,108.24c.8,0,.81-1.25,0-1.25s-.81,1.25,0,1.25h0Z"/>
  <path class="cls-1" d="M46.05,107.9c.8,0,.81-1.25,0-1.25s-.81,1.25,0,1.25h0Z"/>
  <path class="cls-1" d="M45.88,107.82c.8,0,.81-1.25,0-1.25s-.81,1.25,0,1.25h0Z"/>
  <path class="cls-1" d="M46.48,108.5c.8,0,.81-1.25,0-1.25s-.81,1.25,0,1.25h0Z"/>
  <path class="cls-1" d="M24.29,108.07c.8,0,.81-1.25,0-1.25s-.81,1.25,0,1.25h0Z"/>
  <path class="cls-1" d="M24.29,108.75c.8,0,.81-1.25,0-1.25s-.81,1.25,0,1.25h0Z"/>
  <path class="cls-1" d="M17.91,108.84c.8,0,.81-1.25,0-1.25s-.81,1.25,0,1.25h0Z"/>
  <path class="cls-1" d="M17.2,107.53v.09c0,.09,.01,.17,.05,.24,.03,.08,.07,.14,.13,.2,.06,.06,.12,.1,.2,.13,.07,.04,.15,.06,.24,.05l.17-.02c.11-.03,.2-.08,.28-.16l.1-.13c.06-.1,.08-.2,.09-.32v-.09c0-.09-.01-.17-.05-.24-.03-.08-.07-.14-.13-.2-.06-.06-.12-.1-.2-.13-.07-.04-.15-.06-.24-.05l-.17,.02c-.11,.03-.2,.08-.28,.16l-.1,.13c-.06,.1-.08,.2-.09,.32h0Z"/>
  <path class="cls-1" d="M17.83,108.84c.8,0,.81-1.25,0-1.25s-.81,1.25,0,1.25h0Z"/>
  <path class="cls-1" d="M24.46,108.07c.8,0,.81-1.25,0-1.25s-.81,1.25,0,1.25h0Z"/>
  <path class="cls-1" d="M24.46,108.58c.8,0,.81-1.25,0-1.25s-.81,1.25,0,1.25h0Z"/>
  <path class="cls-5" d="M20.13,109.9c3.22,0,3.22-5,0-5s-3.22,5,0,5h0Z"/>
  <path class="cls-5" d="M19.01,101.1l-1.4,9.79c-.1,.69-.12,1.3,.25,1.93,.3,.52,.9,1.01,1.49,1.15,1.18,.27,2.88-.36,3.08-1.75l1.4-9.79c.1-.69,.12-1.3-.25-1.93-.3-.52-.9-1.01-1.49-1.15-1.18-.27-2.88,.36-3.08,1.75h0Z"/>
  <path class="cls-5" d="M17.18,104.44l-.56,6.82c-.05,.61,.31,1.35,.73,1.77s1.15,.76,1.77,.73,1.32-.24,1.77-.73,.68-1.08,.73-1.77l.56-6.82c.05-.61-.31-1.35-.73-1.77s-1.15-.76-1.77-.73-1.32,.24-1.77,.73-.68,1.08-.73,1.77h0Z"/>
  <path class="cls-5" d="M23.33,117.53l.81-8.93c.12-1.31-1.23-2.56-2.5-2.5-1.46,.07-2.37,1.1-2.5,2.5l-.81,8.93c-.12,1.31,1.23,2.56,2.5,2.5,1.46-.07,2.37-1.1,2.5-2.5h0Z"/>
  <path class="cls-5" d="M25.3,116.33v-11.31c0-1.31-1.15-2.56-2.5-2.5s-2.5,1.1-2.5,2.5v11.31c0,1.31,1.15,2.56,2.5,2.5s2.5-1.1,2.5-2.5h0Z"/>
  <path class="cls-5" d="M55.03,111.18c-1.04-3.69-3.69-6.97-7.15-8.65-.61-.3-1.25-.44-1.93-.25-.58,.16-1.21,.61-1.49,1.15-.59,1.12-.36,2.81,.9,3.42,.72,.35,1.39,.77,2.02,1.25l-.51-.39c.77,.6,1.45,1.3,2.05,2.07l-.39-.51c.59,.78,1.08,1.62,1.47,2.51l-.25-.6c.18,.43,.34,.87,.46,1.33,.36,1.26,1.78,2.16,3.08,1.75s2.13-1.73,1.75-3.08h0Z"/>
  <path class="cls-5" d="M52.53,110.08c-.07-1.41-.48-2.84-1.29-4.01s-1.84-2.18-3.14-2.75c-.29-.18-.6-.28-.93-.3-.33-.07-.66-.06-1,.04-.58,.16-1.21,.61-1.49,1.15-.31,.58-.46,1.28-.25,1.93,.19,.58,.57,1.24,1.15,1.49,.39,.17,.76,.38,1.09,.64l-.51-.39c.37,.29,.7,.62,.99,.99l-.39-.51c.28,.38,.52,.78,.71,1.21l-.25-.6c.17,.41,.29,.84,.36,1.29l-.09-.66c.02,.16,.04,.31,.04,.47,.03,.66,.26,1.29,.73,1.77,.43,.43,1.15,.76,1.77,.73s1.32-.24,1.77-.73,.77-1.1,.73-1.77h0Z"/>
  <path class="cls-5" d="M46.9,109.31c3.22,0,3.22-5,0-5s-3.22,5,0,5h0Z"/>
  <path class="cls-5" d="M56.56,111.27c0-.21-.02-.42-.04-.63-.05-.42-.1-.85-.21-1.26-.05-.2-.12-.4-.2-.6-.16-.39-.31-.78-.51-1.15-.16-.29-.37-.53-.64-.7-.24-.22-.52-.37-.85-.45-.33-.1-.66-.12-1-.04-.33,.02-.64,.11-.93,.3l-.51,.39c-.31,.31-.52,.68-.64,1.1l-.09,.66c0,.45,.12,.87,.34,1.26,.08,.15,.15,.3,.22,.45l-.25-.6c.17,.41,.29,.85,.36,1.29l-.09-.66c.03,.21,.04,.42,.04,.63-.01,.34,.06,.67,.22,.96,.1,.31,.27,.58,.52,.8,.23,.24,.49,.42,.8,.52,.3,.16,.62,.23,.96,.22l.66-.09c.42-.12,.79-.33,1.1-.64l.39-.51c.23-.39,.34-.81,.34-1.26h0Z"/>
  <path class="cls-5" d="M93.25,113.37l1.08-8.34c.08-.59-.33-1.37-.73-1.77-.43-.43-1.15-.76-1.77-.73s-1.32,.24-1.77,.73c-.48,.52-.64,1.07-.73,1.77l-1.08,8.34c-.08,.59,.33,1.37,.73,1.77,.43,.43,1.15,.76,1.77,.73s1.32-.24,1.77-.73c.48-.52,.64-1.07,.73-1.77h0Z"/>
  <path class="cls-5" d="M90.79,111.36c.28-1.91,.4-3.81,.24-5.74-.06-.67-.24-1.28-.73-1.77-.43-.43-1.15-.76-1.77-.73s-1.32,.24-1.77,.73c-.43,.46-.79,1.11-.73,1.77,.14,1.59,.1,3.19-.11,4.78l.09-.66c-.01,.1-.03,.2-.04,.3-.1,.33-.12,.66-.04,1,.02,.33,.11,.64,.3,.93,.3,.52,.9,1.01,1.49,1.15,.64,.15,1.36,.11,1.93-.25,.51-.33,1.06-.87,1.15-1.49h0Z"/>
  <path class="cls-5" d="M94.24,114.32c.6-2.96,.86-5.98,.67-8.99-.08-1.3-1.09-2.56-2.5-2.5-1.28,.06-2.59,1.1-2.5,2.5,.13,2.04,.06,4.08-.2,6.11l.09-.66c-.1,.75-.23,1.49-.38,2.22-.26,1.28,.37,2.76,1.75,3.08,1.25,.28,2.8-.38,3.08-1.75h0Z"/>
  <path class="cls-5" d="M93.32,110.2c3.22,0,3.22-5,0-5s-3.22,5,0,5h0Z"/>
  <path class="cls-5" d="M133.01,112.46v-8.33c0-1.31-1.15-2.56-2.5-2.5s-2.5,1.1-2.5,2.5v8.33c0,1.31,1.15,2.56,2.5,2.5s2.5-1.1,2.5-2.5h0Z"/>
  <path class="cls-5" d="M129.91,110.2c3.22,0,3.22-5,0-5s-3.22,5,0,5h0Z"/>
  <path class="cls-5" d="M136.6,110.68l-.39-8.33c-.06-1.3-1.11-2.56-2.5-2.5-1.3,.06-2.57,1.1-2.5,2.5l.39,8.33c.06,1.3,1.11,2.56,2.5,2.5,1.3-.06,2.57-1.1,2.5-2.5h0Z"/>
  <path class="cls-5" d="M173.77,110.68v-4.17c0-.64-.28-1.31-.73-1.77s-1.15-.76-1.77-.73-1.32,.24-1.77,.73-.73,1.09-.73,1.77v4.17c0,.64,.28,1.31,.73,1.77s1.15,.76,1.77,.73,1.32-.24,1.77-.73,.73-1.09,.73-1.77h0Z"/>
  <path class="cls-5" d="M174.64,111.87c.21-2.28,.42-4.56,.64-6.84,.06-.6-.32-1.35-.73-1.77-.43-.43-1.15-.76-1.77-.73s-1.32,.24-1.77,.73-.67,1.07-.73,1.77c-.21,2.28-.42,4.56-.64,6.84-.06,.6,.32,1.35,.73,1.77,.43,.43,1.15,.76,1.77,.73s1.32-.24,1.77-.73,.67-1.07,.73-1.77h0Z"/>
  <path class="cls-5" d="M175.91,113.19c1.23-2.11,1.57-4.67,.96-7.03-.16-.6-.62-1.18-1.15-1.49s-1.33-.45-1.93-.25-1.19,.57-1.49,1.15-.42,1.26-.25,1.93c.07,.28,.13,.55,.16,.84l-.09-.66c.07,.6,.07,1.19-.01,1.79l.09-.66c-.09,.59-.25,1.17-.48,1.72l.25-.6c-.11,.26-.24,.51-.39,.76-.33,.56-.42,1.3-.25,1.93,.16,.58,.61,1.21,1.15,1.49,.58,.31,1.28,.46,1.93,.25s1.16-.58,1.49-1.15h0Z"/>
</svg>